<svg xmlns="http://www.w3.org/2000/svg" xmlns:xlink="http://www.w3.org/1999/xlink" id="Layer_2" x="0px" y="0px" viewBox="0 0 1366 1366" style="enable-background:new 0 0 1366 1366;" xml:space="preserve">
<style type="text/css">
	.doc0{fill:#FFFFFF;}
</style>
<g>
	<rect x="601.7" y="229.8" class="doc0" width="128.1" height="128.1"></rect>
	<rect x="601.7" y="390.7" class="doc0" width="128.1" height="128.1"></rect>
	<rect x="601.7" y="551.7" class="doc0" width="128.1" height="128.1"></rect>
	<rect x="446.1" y="390.7" class="doc0" width="128.1" height="128.1"></rect>
	<rect x="446.1" y="551.7" class="doc0" width="128.1" height="128.1"></rect>
	<rect x="290.6" y="390.7" class="doc0" width="128.1" height="128.1"></rect>
	<rect x="290.6" y="551.7" class="doc0" width="128.1" height="128.1"></rect>
	<rect x="137" y="551.7" class="doc0" width="128.1" height="128.1"></rect>
	<rect x="757.2" y="551.7" class="doc0" width="128.1" height="128.1"></rect>
	<path class="doc0" d="M483.3,1136.2C11.6,1136.2,66.5,721,66.5,721s654.6,0,787.4,0s176.7-42.1,176.7-42.1s-75-97,12.8-214   c98.8,56.7,95.1,140.9,95.1,140.9s100.6-32.9,162.8,23.8C1266.7,742.9,1113,735.6,1113,735.6S970.3,1136.2,483.3,1136.2z"></path>
</g>
</svg>