<?xml version="1.0" encoding="utf-8"?>
<!-- Generator: Adobe Illustrator 27.5.0, SVG Export Plug-In . SVG Version: 6.00 Build 0)  -->
<svg version="1.1" id="Ebene_1" xmlns="http://www.w3.org/2000/svg" xmlns:xlink="http://www.w3.org/1999/xlink" x="0px" y="0px"
	 viewBox="0 0 145 58" style="enable-background:new 0 0 145 58;" xml:space="preserve">
<style type="text/css">
	.st0{fill:#FFFFFF;}
	.st1{fill-rule:evenodd;clip-rule:evenodd;fill:#FFFFFF;}
</style>
<path class="st0" d="M10.5,46.5H0V0h10.5v14.4c1.7-1,3.5-1.8,5.3-2.3c1.9-0.6,3.6-0.8,5.3-0.8c3.9,0,6.8,0.9,8.8,2.8
	s2.9,4.7,2.9,8.5v23.9H22.3V24c0-1.2-0.4-2-1-2.5c-0.7-0.5-1.8-0.8-3.4-0.8c-1.2,0-2.4,0.1-3.7,0.4c-1.3,0.2-2.5,0.4-3.7,0.8V46.5z"
	/>
<path class="st1" d="M67.3,36.3v8.3c-1.1,0.7-3,1.3-5.7,1.8s-5.5,0.8-8.4,0.8c-5.6,0-9.6-1.4-12.1-4.2s-3.7-7.4-3.7-13.8
	c0-6.2,1.3-10.8,3.9-13.6s6.7-4.3,12.4-4.3c5.5,0,9.4,1.1,11.6,3.3c2.3,2.1,3.4,6,3.4,11.5c0,1.5,0,2.7-0.1,3.6s-0.1,1.9-0.3,3.1H48
	c0,1.9,0.6,3.2,1.5,4s2.8,1.1,5.4,1.1c2.2,0,4.5-0.1,6.9-0.4C64.1,37.1,66,36.7,67.3,36.3z M53.7,20.2c-2.2,0-3.8,0.4-4.6,1.2
	c-0.8,0.7-1.2,2.2-1.2,4.5h11.3v-1.5c0-1.6-0.4-2.7-1.2-3.3C57.4,20.5,55.9,20.2,53.7,20.2z"/>
<path class="st0" d="M81,48.2c-0.7,0.5-1.9,0.7-3.6,0.7c-1.2,0-2,0-2.4-0.1c-0.5,0-0.9,0-1.3-0.1v8.5c0.8,0.2,1.8,0.3,2.8,0.4
	c1.1,0.1,2.1,0.1,3.1,0.1c3.5,0,6.3-0.8,8.4-2.5c2.1-1.6,3.9-4.3,5.2-8.1L105.5,12H94.2l-6.3,23.7L81.3,12H69.6l13,33.9
	C82.3,47,81.8,47.8,81,48.2z"/>
<path class="st0" d="M109.3,9.3h7.9V3.4h-7.9V9.3z"/>
<path class="st0" d="M109.5,36.7h7.5V12h-7.5V36.7z"/>
<path class="st1" d="M142,34.2c1.9-2,2.8-5.3,2.8-9.9s-0.9-7.9-2.8-9.9c-1.9-2-5-2.9-9.4-2.9s-7.5,1-9.4,2.9c-1.9,2-2.8,5.3-2.8,9.9
	s0.9,7.9,2.8,9.9s5,3,9.4,3S140.2,36.2,142,34.2z M128.7,29.1c-0.5-0.7-0.8-2.4-0.8-4.9s0.3-4.2,0.8-4.9c0.6-0.7,1.9-1.1,3.9-1.1
	s3.3,0.4,3.9,1.1c0.6,0.7,0.8,2.4,0.8,4.9s-0.3,4.2-0.8,4.9c-0.5,0.7-1.8,1.1-3.9,1.1C130.6,30.2,129.3,29.9,128.7,29.1z"/>
</svg>
